<svg xmlns="http://www.w3.org/2000/svg" width="120.403" height="49.908" viewBox="0 0 120.403 49.908">
    <defs>
        <filter id="nuwjgblt7a" x="0" y="0" width="120.403" height="49.908" filterUnits="userSpaceOnUse">
            <feOffset/>
            <feGaussianBlur stdDeviation="5" result="blur"/>
            <feFlood flood-opacity=".22"/>
            <feComposite operator="in" in2="blur"/>
            <feComposite in="SourceGraphic"/>
        </filter>
    </defs>
    <g data-name="Group 1770">
        <g style="filter:url(#nuwjgblt7a)">
            <path data-name="Path 258" d="M9.954 0h70.5a9.954 9.954 0 1 1 0 19.908h-70.5A9.954 9.954 0 0 1 9.954 0z" transform="translate(14.997 15.001)" style="fill:#fff"/>
        </g>
        <text data-name="contact us" transform="translate(39.837 27.031)" style="font-size:6px;font-family:MS-UIGothic,MS UI Gothic;fill:#67c15e"><tspan x="0" y="0">CONTACT US</tspan></text>
        <g data-name="Group 1769">
            <path data-name="Path 254" d="M11.611 22.222a9.606 9.606 0 1 0-8.363-4.871L2 22.222l5.022-1.164a9.568 9.568 0 0 0 4.589 1.164zm0-1.479a8.131 8.131 0 1 0-6.665-3.471L4.218 20 7 19.309a8.1 8.1 0 0 0 4.611 1.434z" transform="translate(3.389 11.717)" style="fill-rule:evenodd;fill:#bfc8d0"/>
            <path data-name="Path 255" d="M20.476 12.238a8.239 8.239 0 0 1-12.911 6.785l-2.816.7.738-2.767a8.238 8.238 0 1 1 14.989-4.722z" transform="translate(2.762 11.404)" style="fill:#67c15e"/>
            <path data-name="Path 256" d="M11.611 21.222a9.606 9.606 0 1 0-8.363-4.871L2 21.222l5.022-1.164a9.568 9.568 0 0 0 4.589 1.164zm0-1.479a8.131 8.131 0 1 0-6.665-3.471L4.218 19 7 18.309a8.1 8.1 0 0 0 4.611 1.434z" transform="translate(3.389 12.031)" style="fill-rule:evenodd;fill:#fff"/>
            <path data-name="Path 257" d="M11.334 9.308c-.228-.459-.579-.418-.933-.418a2 2 0 0 0-1.62 2.169c0 1.156.51 2.422 2.226 4.315a7.823 7.823 0 0 0 5.641 2.74A2.132 2.132 0 0 0 18.828 16a.38.38 0 0 0-.244-.381c-.616-.3-1.752-.846-2.01-.95a.4.4 0 0 0-.477.113c-.234.223-.7.882-.858 1.03a.439.439 0 0 1-.495.017 6.934 6.934 0 0 1-2.133-1.345 5.078 5.078 0 0 1-1.211-1.551.326.326 0 0 1 .015-.434c.209-.241.5-.614.628-.8s.027-.466-.035-.641a18.627 18.627 0 0 0-.674-1.75z" transform="translate(1.263 9.871)" style="fill:#fff"/>
        </g>
    </g>
</svg>
