<svg xmlns="http://www.w3.org/2000/svg" width="328" height="112" viewBox="0 0 328 112">
    <defs>
        <filter id="sidf5rv5oa" x="0" y="0" width="328" height="112" filterUnits="userSpaceOnUse">
            <feOffset dy="5"/>
            <feGaussianBlur stdDeviation="8.5" result="blur"/>
            <feFlood flood-opacity=".349"/>
            <feComposite operator="in" in2="blur"/>
            <feComposite in="SourceGraphic"/>
        </filter>
    </defs>
    <g data-name="Group 1770">
        <g style="filter:url(#sidf5rv5oa)">
            <path data-name="Path 258" d="M30.5 0h216a30.5 30.5 0 0 1 0 61h-216a30.5 30.5 0 0 1 0-61z" transform="translate(25.5 20.5)" style="fill:#fff"/>
        </g>
        <text data-name="contact us" transform="translate(99.5 59.5)" style="font-size:25px;font-family:MS-UIGothic,MS UI Gothic;fill:#67c15e"><tspan x="0" y="0">CONTACT US</tspan></text>
        <g data-name="Group 1769">
            <path data-name="Path 254" d="M31.448 61.9A29.434 29.434 0 1 0 5.825 46.973L2 61.9l15.386-3.568A29.318 29.318 0 0 0 31.448 61.9zm0-4.53a24.913 24.913 0 1 0-20.42-10.639L8.8 55.1l8.517-2.129a24.8 24.8 0 0 0 14.131 4.395z" transform="translate(3.052 19.603)" style="fill-rule:evenodd;fill:#bfc8d0"/>
            <path data-name="Path 255" d="M54.483 29.241a25.245 25.245 0 0 1-39.56 20.79l-8.628 2.157 2.261-8.478a25.242 25.242 0 1 1 45.927-14.469z" transform="translate(5.259 20.707)" style="fill:#67c15e"/>
            <path data-name="Path 256" d="M31.448 60.9A29.434 29.434 0 1 0 5.825 45.973L2 60.9l15.386-3.568A29.318 29.318 0 0 0 31.448 60.9zm0-4.53a24.913 24.913 0 1 0-20.42-10.639L8.8 54.1l8.517-2.129a24.8 24.8 0 0 0 14.131 4.395z" transform="translate(3.052 18.5)" style="fill-rule:evenodd;fill:#fff"/>
            <path data-name="Path 257" d="M16.6 10.174c-.7-1.406-1.774-1.282-2.859-1.282-1.939 0-4.963 2.323-4.963 6.646 0 3.543 1.561 7.421 6.822 13.222 5.077 5.6 11.748 8.5 17.286 8.4a6.531 6.531 0 0 0 6.677-6.474 1.163 1.163 0 0 0-.748-1.166c-1.887-.906-5.368-2.593-6.16-2.91a1.231 1.231 0 0 0-1.463.345c-.718.684-2.142 2.7-2.629 3.155a1.347 1.347 0 0 1-1.517.053 21.246 21.246 0 0 1-6.535-4.12 15.56 15.56 0 0 1-3.71-4.759 1 1 0 0 1 .045-1.329c.641-.739 1.526-1.881 1.923-2.448s.082-1.429-.107-1.965a57.073 57.073 0 0 0-2.062-5.368z" transform="translate(10.535 26.102)" style="fill:#fff"/>
        </g>
    </g>
</svg>
